<svg xmlns="http://www.w3.org/2000/svg" width="64" height="64"><path d="M51.551 22.325c.354-.07.883-.188 1.479-.316h4.615l.718-1.062.058-.01 1.786-2.58-.087-.005.188-.28h-25.015l.962 3.936h6.826l-11.487 10.367c-2.345-3.236-7.838-9.982-11.67-15.566h8.6v-2.994l.098-.661-.098-.013v-.27h-28.524v3.938h8.458c3.284 2.567 15.839 18.245 16.361 19.81.209 1.463.401 10.106-.214 10.759-1.234 1.306-6.865.959-8.223 1.056l-.47 2.678c2.48.072 10.553-.201 13.061-.201 4.946 0 13.606-.022 14.828.07l.151-2.81c-1.249-.211-8.066-.024-9.009-.238-.209-1.361-.438-10.46-.229-11.4.942-2.719 15.267-13.784 16.837-14.208zm4.152 21.506l3.832.305 4.465-17.242c-.746-.025-7.521-.666-8.4-.835l.103 17.772z"/><polygon points="55.039,46.596 55.063,50.804 57.002,50.972 59.098,51.129 59.713,47.008 57.502,46.898"/></svg>