<svg xmlns="http://www.w3.org/2000/svg" width="64" height="64"><polygon points="16.343,5.755 18.988,5.755 18.988,8.654 21.882,8.654 21.882,0 18.988,0 18.988,2.859 16.343,2.859 16.343,0 13.451,0 13.451,8.654 16.343,8.654"/><polygon points="25.686,8.654 28.577,8.654 28.577,2.871 31.121,2.871 31.121,0 23.14,0 23.14,2.871 25.686,2.871"/><polygon points="35.219,4.367 37.213,7.441 37.26,7.441 39.25,4.367 39.25,8.654 42.131,8.654 42.131,0 39.115,0 37.26,3.045 35.406,0 32.391,0 32.391,8.654 35.219,8.654"/><polygon points="50.529,5.795 46.463,5.795 46.463,0 43.57,0 43.57,8.654 50.529,8.654"/><path d="M9.283 12.45l4.137 46.396 18.568 5.154 18.583-5.15 4.146-46.398-45.434-.002zm36.459 15.173h-21.776l.519 5.828h20.742l-1.562 17.477-11.665 3.23-.01.002-11.657-3.234-.813-9.141h5.711l.423 4.74 6.337 1.714.009-.003 6.343-1.713.662-7.381h-19.721l-1.537-17.208h28.503l-.508 5.689z"/></svg>