<svg xmlns="http://www.w3.org/2000/svg" width="64" height="64"><path d="M61.74 38.797c.455-2.088.691-4.243.691-6.462 0-16.619-13.473-30.094-30.095-30.094-1.754 0-3.472.153-5.148.438-2.687-1.693-5.871-2.679-9.283-2.679-9.641 0-17.455 7.815-17.455 17.457 0 3.222.877 6.236 2.398 8.827-.401 1.954-.608 3.979-.608 6.051 0 16.624 13.472 30.101 30.096 30.101 1.885 0 3.723-.176 5.512-.506 2.457 1.32 5.266 2.07 8.25 2.07 9.641 0 17.453-7.813 17.453-17.453 0-2.785-.653-5.414-1.811-7.75zm-13.969 7.922c-1.389 1.971-3.447 3.533-6.113 4.64-2.639 1.097-5.803 1.655-9.403 1.655-4.322 0-7.948-.764-10.776-2.264-2.023-1.091-3.689-2.568-4.956-4.398-1.276-1.84-1.925-3.67-1.925-5.436 0-1.102.422-2.059 1.255-2.841.824-.774 1.88-1.169 3.143-1.169 1.034 0 1.927.309 2.65.92.692.589 1.285 1.459 1.764 2.58.535 1.225 1.114 2.256 1.729 3.064.592.783 1.44 1.438 2.524 1.953 1.093.516 2.564.777 4.371.777 2.49 0 4.531-.529 6.064-1.578 1.5-1.021 2.225-2.251 2.225-3.755 0-1.188-.377-2.12-1.156-2.856-.824-.767-1.9-1.357-3.215-1.771-1.366-.425-3.226-.887-5.521-1.368-3.126-.669-5.778-1.463-7.889-2.357-2.162-.919-3.9-2.193-5.172-3.784-1.291-1.62-1.947-3.645-1.947-6.031 0-2.273.688-4.324 2.043-6.09 1.345-1.756 3.312-3.123 5.842-4.056 2.497-.923 5.467-1.393 8.832-1.393 2.687 0 5.048.312 7.022.923 1.984.617 3.656 1.451 4.971 2.479 1.322 1.035 2.309 2.139 2.928 3.291.623 1.158.939 2.314.939 3.431 0 1.076-.414 2.053-1.234 2.908-.826.854-1.863 1.29-3.09 1.29-1.113 0-1.988-.274-2.596-.806-.561-.502-1.145-1.278-1.793-2.394-.75-1.424-1.658-2.549-2.701-3.342-1.014-.771-2.703-1.159-5.028-1.159-2.155 0-3.912.433-5.214 1.29-1.256.82-1.867 1.765-1.867 2.882 0 .688.198 1.259.604 1.751.427.526 1.033.98 1.793 1.365.789.398 1.608.714 2.423.937.836.233 2.238.577 4.163 1.021 2.435.523 4.677 1.108 6.653 1.744 2.008.642 3.736 1.429 5.15 2.351 1.439.938 2.584 2.141 3.395 3.583.812 1.444 1.225 3.229 1.225 5.303-.002 2.473-.713 4.736-2.112 6.71z"/></svg>