<svg xmlns="http://www.w3.org/2000/svg" width="64" height="64"><path d="M34.784 0v14.799h14.799v11.429h-14.799v16.409c0 3.711-.045 5.854.348 6.904.391 1.047 1.371 2.135 2.438 2.762 1.42.851 3.032 1.273 4.854 1.273 3.239 0 6.465-1.053 9.67-3.158v10.092c-2.731 1.287-5.209 2.195-7.427 2.711-2.22.514-4.613.779-7.191.779-2.926 0-4.652-.371-6.898-1.104-2.25-.744-4.167-1.802-5.752-3.16-1.594-1.369-2.688-2.824-3.303-4.36-.616-1.544-.922-3.777-.922-6.703v-22.445h-8.695v-9.065c2.515-.815 5.428-1.985 7.216-3.509 1.799-1.53 3.236-3.357 4.318-5.497 1.089-2.134 1.836-4.855 2.245-8.154h9.1v-.003z"/></svg>