<svg xmlns="http://www.w3.org/2000/svg" width="64" height="64"><path d="M34.4 28.867v-.1l-.064.1h.064zm24.698-28.867h-54.197c-2.595 0-4.698 2.055-4.698 4.585v54.831c0 2.529 2.104 4.584 4.698 4.584h54.197c2.598 0 4.699-2.056 4.699-4.584v-54.831c0-2.531-2.102-4.585-4.699-4.585zm-39.619 53.577h-9.605v-28.899h9.606v28.899zm-4.802-32.848h-.064c-3.222 0-5.307-2.221-5.307-4.993 0-2.835 2.149-4.992 5.433-4.992 3.288 0 5.308 2.157 5.373 4.992 0 2.774-2.086 4.993-5.435 4.993zm39.44 32.848h-9.605v-15.466c0-3.882-1.391-6.533-4.867-6.533-2.652 0-4.23 1.788-4.929 3.516-.253.615-.315 1.478-.315 2.342v16.141h-9.604s.125-26.189 0-28.899h9.603v4.091c1.277-1.969 3.561-4.772 8.658-4.772 6.318 0 11.061 4.133 11.061 13.009v16.574l-.002-.003z"/></svg>