<?xml version="1.0" encoding="utf-8"?>
<!-- Generator: Adobe Illustrator 16.0.0, SVG Export Plug-In . SVG Version: 6.00 Build 0)  -->
<!DOCTYPE svg PUBLIC "-//W3C//DTD SVG 1.1//EN" "http://www.w3.org/Graphics/SVG/1.1/DTD/svg11.dtd">
<svg version="1.1"
	 id="svg2" xmlns:dc="http://purl.org/dc/elements/1.1/" xmlns:cc="http://creativecommons.org/ns#" xmlns:rdf="http://www.w3.org/1999/02/22-rdf-syntax-ns#" xmlns:svg="http://www.w3.org/2000/svg" xmlns:sodipodi="http://sodipodi.sourceforge.net/DTD/sodipodi-0.dtd" xmlns:inkscape="http://www.inkscape.org/namespaces/inkscape" sodipodi:docname="AJAX.svg" inkscape:version="0.48.2 r9819"
	 xmlns="http://www.w3.org/2000/svg" xmlns:xlink="http://www.w3.org/1999/xlink" x="0px" y="0px" width="96px" height="96px"
	 viewBox="-24.812 -16 96 96" enable-background="new -24.812 -16 96 96" xml:space="preserve">
<sodipodi:namedview  inkscape:cy="16.739179" inkscape:cx="79.983736" inkscape:zoom="5.3666668" fit-margin-left="0" fit-margin-top="0" showgrid="false" guidetolerance="10" gridtolerance="10" pagecolor="#ffffff" borderopacity="1" bordercolor="#666666" objecttolerance="10" id="namedview16" inkscape:current-layer="svg2" inkscape:window-maximized="1" inkscape:window-y="-8" inkscape:window-x="-8" inkscape:window-height="1004" fit-margin-bottom="0" inkscape:pageopacity="0" inkscape:window-width="1280" inkscape:pageshadow="2" fit-margin-right="0">
	</sodipodi:namedview>
<path id="twitter" sodipodi:nodetypes="ccscscscscsscsscscsscsccc" inkscape:connector-curvature="0" d="M47.96,32.106
	c3.198,0,5.946-1.182,8.233-3.537c2.289-2.358,3.432-5.19,3.432-8.488c0-3.302-1.143-6.131-3.439-8.488
	c-2.295-2.358-5.047-3.539-8.258-3.539H13.372V-3.973c0-3.305-1.138-6.131-3.412-8.486C7.694-14.822,4.962-16,1.786-16
	c-3.274,0-6.048,1.158-8.318,3.47c-2.269,2.314-3.405,5.17-3.405,8.565v48c0,9.912,3.405,18.385,10.225,25.414
	C7.102,76.484,15.308,80,24.91,80h23.053c3.204,0,5.941-1.18,8.229-3.535c2.289-2.354,3.432-5.189,3.432-8.488
	c0-3.303-1.143-6.129-3.432-8.488c-2.287-2.357-5.035-3.541-8.232-3.541H24.9c-3.204,0-5.927-1.156-8.17-3.473
	c-2.244-2.322-3.362-5.139-3.362-8.449V32.104H47.96V32.106z"/>
</svg>
