<svg xmlns="http://www.w3.org/2000/svg" width="64" height="64"><path d="M63.353 25.557c-.419-2.055-1.05-4.081-1.865-6.015-.802-1.899-1.796-3.727-2.951-5.435-1.146-1.695-2.459-3.287-3.905-4.733-1.447-1.449-3.041-2.764-4.733-3.908-1.709-1.158-3.539-2.148-5.437-2.952-1.935-.814-3.957-1.446-6.014-1.863-2.105-.432-4.275-.652-6.444-.652s-4.336.22-6.445.652c-2.056.417-4.081 1.051-6.014 1.863-1.896.804-3.727 1.795-5.438 2.952-1.695 1.144-3.287 2.458-4.734 3.908-1.447 1.446-2.76 3.039-3.905 4.733-1.156 1.708-2.148 3.536-2.95 5.435-.819 1.934-1.447 3.959-1.868 6.015-.431 2.104-.65 4.273-.65 6.441 0 2.174.219 4.344.65 6.448.421 2.057 1.05 4.08 1.867 6.014.801 1.895 1.795 3.729 2.949 5.438 1.146 1.695 2.458 3.285 3.905 4.732 1.446 1.445 3.039 2.76 4.733 3.904 1.71 1.156 3.541 2.148 5.438 2.949 1.932.82 3.958 1.445 6.014 1.867 2.109.434 4.275.652 6.445.652 2.168 0 4.339-.219 6.443-.652 2.06-.422 4.08-1.049 6.015-1.867 1.896-.801 3.728-1.795 5.437-2.949 1.694-1.146 3.286-2.457 4.733-3.904 1.445-1.447 2.76-3.039 3.905-4.732 1.156-1.709 2.149-3.543 2.95-5.438.816-1.934 1.445-3.957 1.865-6.014.434-2.106.651-4.276.651-6.448.002-2.168-.215-4.337-.647-6.441zm-4.032 6.17c-.396-.084-9.644-2.075-19.033-.896-.192-.468-.388-.938-.59-1.411-.567-1.337-1.181-2.664-1.817-3.964 10.795-4.404 15.178-10.741 15.228-10.816 3.831 4.654 6.151 10.601 6.212 17.087zm-9.268-20.238c-.068.106-3.961 6.03-14.275 9.897-4.672-8.585-9.805-15.403-10.215-15.944 2.065-.501 4.22-.771 6.439-.771 6.922 0 13.235 2.577 18.051 6.818zm-24.597-6.025l-.005.005-.081.019.086-.024zm-5.115 1.818c.364.488 5.419 7.34 10.149 15.747-13.123 3.487-24.51 3.35-25.232 3.337 1.774-8.465 7.462-15.484 15.083-19.084zm-15.668 24.716c0-.291.013-.575.023-.863.481.01 13.986.317 28.056-3.894.784 1.534 1.533 3.09 2.218 4.646-.359.102-.721.21-1.077.326-14.749 4.768-22.23 18.039-22.23 18.039l.01.012c-4.35-4.842-7-11.244-7-18.266zm27.328 27.332c-6.613 0-12.68-2.352-17.407-6.264.358.291.612.48.612.48s5.239-11.428 21.447-17.074l.182-.059c3.846 9.992 5.434 18.361 5.838 20.75-3.28 1.398-6.885 2.167-10.672 2.167zm15.272-4.662c-.278-1.65-1.734-9.672-5.318-19.521 8.82-1.412 16.469 1.008 17.031 1.193-1.218 7.615-5.576 14.183-11.713 18.328z"/></svg>