<svg xmlns="http://www.w3.org/2000/svg" width="64" height="64"><path d="M60.391 44.361v12.984h-.006l.006 1.182c-12.6 6.355-33.514 8.17-45.581.033-7.303-4.927-14.507-14.726-14.114-27.118.374-11.774 8.008-22.314 18.505-27.618 12.067-6.106 30.281-4.952 40.902 3.84l-6.257 6.38-4.055 1.151 2.155-3.921c-3.099-3.112-6.651-5.369-10.562-6.618-6.243-2.001-12.001-.896-16.8 1.451-9.825 4.812-15.64 16.473-13.383 28.802 2.381 12.99 12.43 23.409 25.612 24.504 3.885.326 8.137.134 11.902-.856 2.676-.864 2.654-1.123 2.654-2.748v-11.448l-13.199.393 6.795-3.828h18.354l-2.928 3.435z"/></svg>