<svg xmlns="http://www.w3.org/2000/svg" width="64" height="64"><path d="M54.128 28.548l-1.623-.519c-3.985-1.252-6.388-2.009-6.388-5.11 0-2.515 1.939-4.339 4.615-4.339 2.05 0 3.576.85 4.945 2.767.127.179.369.243.568.137l4.02-2.052c.109-.053.189-.152.226-.27.032-.117.021-.242-.039-.349-2.152-3.827-5.259-5.687-9.494-5.687-6.445 0-10.611 3.9-10.611 9.934 0 6.17 4.028 8.667 11.462 11.113 4.307 1.436 6.211 2.197 6.211 5.262 0 3.444-3.105 5.922-7.347 5.775-4.441-.148-5.79-2.505-7.48-6.361-2.865-6.532-6.123-14.158-6.152-14.23-3.271-7.546-9.755-11.872-17.791-11.872-10.613.001-19.25 8.637-19.25 19.256 0 10.612 8.637 19.25 19.25 19.25 5.791 0 11.217-2.566 14.887-7.045.106-.13.135-.304.067-.46l-2.429-5.602c-.068-.154-.224-.26-.395-.268-.177-.007-.334.088-.412.239-2.291 4.379-6.781 7.098-11.722 7.098-7.284 0-13.208-5.927-13.208-13.214 0-7.289 5.926-13.215 13.209-13.215 5.305 0 10.163 3.147 12.092 7.844l6.002 13.689.691 1.537c2.713 6.323 6.698 9.155 12.943 9.178 7.426 0 13.023-4.92 13.023-11.442.003-6.549-3.618-9.004-9.87-11.044z"/></svg>