<svg xmlns="http://www.w3.org/2000/svg" width="64" height="64"><path d="M64 12.152c-2.352 1.045-4.885 1.75-7.541 2.066 2.713-1.624 4.793-4.197 5.773-7.265-2.537 1.507-5.346 2.599-8.338 3.189-2.396-2.551-5.809-4.147-9.584-4.147-7.25 0-13.13 5.879-13.13 13.131 0 1.027.115 2.028.34 2.991-10.912-.548-20.588-5.775-27.065-13.72-1.129 1.938-1.776 4.194-1.776 6.603 0 4.556 2.316 8.575 5.84 10.929-2.15-.069-4.177-.66-5.947-1.643l-.001.166c0 6.361 4.525 11.667 10.533 12.875-1.101.298-2.262.459-3.46.459-.846 0-1.669-.081-2.47-.234 1.671 5.215 6.52 9.014 12.265 9.117-4.494 3.522-10.152 5.621-16.307 5.621-1.059 0-2.104-.062-3.132-.184 5.812 3.728 12.714 5.898 20.128 5.898 24.153 0 37.36-20.008 37.36-37.357 0-.57-.012-1.137-.037-1.701 2.565-1.848 4.791-4.162 6.549-6.794z"/></svg>